<svg width="950" height="94" viewBox="0 0 950 94" fill="none" xmlns="http://www.w3.org/2000/svg">
<path d="M0.321014 73V0.272736H48.4744V12.9503H15.6974V30.2798H45.2784V42.9574H15.6974V73H0.321014Z" fill="white"/>
<path d="M57.6541 73V18.4546H72.3203V27.9716H72.8885C73.8828 24.5862 75.5518 22.0294 77.8956 20.3011C80.2393 18.5493 82.9382 17.6733 85.9922 17.6733C86.7498 17.6733 87.5665 17.7207 88.4425 17.8153C89.3184 17.91 90.0878 18.0403 90.7507 18.206V31.6293C90.0405 31.4162 89.058 31.2268 87.8033 31.0611C86.5485 30.8954 85.4003 30.8125 84.3587 30.8125C82.1333 30.8125 80.1446 31.2978 78.3927 32.2685C76.6645 33.2154 75.2914 34.5412 74.2734 36.2458C73.2791 37.9503 72.782 39.9153 72.782 42.1406V73H57.6541Z" fill="white"/>
<path d="M120.678 74.0654C115.162 74.0654 110.391 72.8935 106.367 70.5497C102.366 68.1823 99.2764 64.8916 97.0984 60.6776C94.9203 56.4399 93.8313 51.5275 93.8313 45.9403C93.8313 40.3059 94.9203 35.3816 97.0984 31.1676C99.2764 26.9299 102.366 23.6392 106.367 21.2955C110.391 18.928 115.162 17.7443 120.678 17.7443C126.194 17.7443 130.953 18.928 134.953 21.2955C138.978 23.6392 142.079 26.9299 144.257 31.1676C146.435 35.3816 147.524 40.3059 147.524 45.9403C147.524 51.5275 146.435 56.4399 144.257 60.6776C142.079 64.8916 138.978 68.1823 134.953 70.5497C130.953 72.8935 126.194 74.0654 120.678 74.0654ZM120.749 62.3466C123.258 62.3466 125.354 61.6364 127.034 60.2159C128.715 58.7718 129.982 56.8068 130.834 54.321C131.71 51.8352 132.148 49.0062 132.148 45.8338C132.148 42.6615 131.71 39.8324 130.834 37.3466C129.982 34.8608 128.715 32.8958 127.034 31.4517C125.354 30.0076 123.258 29.2855 120.749 29.2855C118.216 29.2855 116.085 30.0076 114.357 31.4517C112.652 32.8958 111.362 34.8608 110.486 37.3466C109.634 39.8324 109.208 42.6615 109.208 45.8338C109.208 49.0062 109.634 51.8352 110.486 54.321C111.362 56.8068 112.652 58.7718 114.357 60.2159C116.085 61.6364 118.216 62.3466 120.749 62.3466Z" fill="white"/>
<path d="M172.489 41.4659V73H157.361V18.4546H171.779V28.0781H172.418C173.625 24.9058 175.649 22.3963 178.49 20.5497C181.331 18.6795 184.776 17.7443 188.824 17.7443C192.612 17.7443 195.915 18.5729 198.732 20.2301C201.549 21.8873 203.739 24.2547 205.301 27.3324C206.864 30.3864 207.645 34.0322 207.645 38.2699V73H192.517V40.9688C192.541 37.6307 191.689 35.0265 189.961 33.1563C188.232 31.2623 185.853 30.3154 182.823 30.3154C180.787 30.3154 178.988 30.7533 177.425 31.6293C175.886 32.5052 174.679 33.7836 173.803 35.4645C172.951 37.1217 172.513 39.1222 172.489 41.4659Z" fill="white"/>
<path d="M248.581 18.4546V29.8182H215.733V18.4546H248.581ZM223.19 5.38637H238.318V56.2386C238.318 57.6354 238.531 58.7244 238.957 59.5057C239.384 60.2633 239.975 60.7959 240.733 61.1037C241.514 61.4115 242.414 61.5653 243.432 61.5653C244.142 61.5653 244.852 61.5062 245.562 61.3878C246.273 61.2458 246.817 61.1392 247.196 61.0682L249.575 72.3253C248.818 72.562 247.752 72.8343 246.379 73.1421C245.006 73.4735 243.337 73.6747 241.372 73.7457C237.726 73.8878 234.53 73.4025 231.784 72.2898C229.062 71.1771 226.943 69.4489 225.428 67.1051C223.912 64.7614 223.167 61.8021 223.19 58.2273V5.38637Z" fill="white"/>
<path d="M282.707 74.0654C277.097 74.0654 272.267 72.929 268.219 70.6563C264.194 68.3599 261.093 65.1165 258.915 60.9261C256.737 56.7121 255.648 51.7287 255.648 45.9759C255.648 40.3651 256.737 35.4408 258.915 31.2031C261.093 26.9654 264.159 23.6629 268.112 21.2955C272.089 18.928 276.753 17.7443 282.104 17.7443C285.702 17.7443 289.052 18.3243 292.153 19.4844C295.278 20.6207 298.001 22.3371 300.321 24.6335C302.665 26.9299 304.488 29.8182 305.79 33.2983C307.092 36.7547 307.743 40.803 307.743 45.4432V49.598H261.685V40.223H293.503C293.503 38.045 293.029 36.1155 292.082 34.4347C291.135 32.7538 289.821 31.4399 288.141 30.4929C286.483 29.5223 284.554 29.0369 282.352 29.0369C280.056 29.0369 278.02 29.5696 276.244 30.635C274.492 31.6766 273.119 33.0852 272.125 34.8608C271.131 36.6127 270.622 38.5658 270.598 40.7202V49.6335C270.598 52.3324 271.095 54.6643 272.089 56.6293C273.107 58.5942 274.54 60.1094 276.386 61.1747C278.233 62.2401 280.423 62.7727 282.956 62.7727C284.637 62.7727 286.176 62.536 287.572 62.0625C288.969 61.589 290.165 60.8788 291.159 59.9318C292.153 58.9849 292.911 57.8248 293.432 56.4517L307.423 57.375C306.713 60.7368 305.257 63.6724 303.055 66.1818C300.877 68.6676 298.06 70.6089 294.604 72.0057C291.171 73.3788 287.206 74.0654 282.707 74.0654Z" fill="white"/>
<path d="M332.743 41.4659V73H317.615V18.4546H332.033V28.0781H332.672C333.879 24.9058 335.903 22.3963 338.744 20.5497C341.585 18.6795 345.03 17.7443 349.078 17.7443C352.866 17.7443 356.169 18.5729 358.986 20.2301C361.803 21.8873 363.993 24.2547 365.555 27.3324C367.118 30.3864 367.899 34.0322 367.899 38.2699V73H352.771V40.9688C352.795 37.6307 351.943 35.0265 350.214 33.1563C348.486 31.2623 346.107 30.3154 343.077 30.3154C341.041 30.3154 339.241 30.7533 337.679 31.6293C336.14 32.5052 334.933 33.7836 334.057 35.4645C333.205 37.1217 332.767 39.1222 332.743 41.4659Z" fill="white"/>
<path d="M399.922 73.8878C395.779 73.8878 392.026 72.8225 388.664 70.6918C385.326 68.5374 382.675 65.3769 380.71 61.2102C378.769 57.0199 377.798 51.8826 377.798 45.7983C377.798 39.5483 378.804 34.3518 380.816 30.2088C382.829 26.0422 385.504 22.929 388.842 20.8693C392.204 18.786 395.885 17.7443 399.886 17.7443C402.94 17.7443 405.485 18.2652 407.521 19.3068C409.581 20.3248 411.238 21.6032 412.493 23.1421C413.771 24.6572 414.742 26.1487 415.404 27.6165H415.866V0.272736H430.958V73H416.044V64.2642H415.404C414.694 65.7794 413.688 67.2827 412.386 68.7742C411.108 70.242 409.439 71.4612 407.379 72.4318C405.343 73.4025 402.857 73.8878 399.922 73.8878ZM404.716 61.8494C407.154 61.8494 409.214 61.1866 410.895 59.8608C412.599 58.5114 413.901 56.6293 414.801 54.2145C415.724 51.7997 416.186 48.9707 416.186 45.7273C416.186 42.4839 415.736 39.6667 414.836 37.2756C413.937 34.8845 412.635 33.0379 410.93 31.7358C409.226 30.4337 407.154 29.7827 404.716 29.7827C402.23 29.7827 400.135 30.4574 398.43 31.8068C396.726 33.1563 395.435 35.0265 394.559 37.4176C393.683 39.8087 393.245 42.5786 393.245 45.7273C393.245 48.8996 393.683 51.705 394.559 54.1435C395.459 56.5582 396.749 58.4522 398.43 59.8253C400.135 61.1747 402.23 61.8494 404.716 61.8494Z" fill="white"/>
<path d="M486.64 73.8878C482.497 73.8878 478.745 72.8225 475.383 70.6918C472.045 68.5374 469.394 65.3769 467.429 61.2102C465.487 57.0199 464.517 51.8826 464.517 45.7983C464.517 39.5483 465.523 34.3518 467.535 30.2088C469.547 26.0422 472.223 22.929 475.561 20.8693C478.922 18.786 482.604 17.7443 486.605 17.7443C489.659 17.7443 492.204 18.2652 494.24 19.3068C496.299 20.3248 497.957 21.6032 499.211 23.1421C500.49 24.6572 501.46 26.1487 502.123 27.6165H502.585V0.272736H517.677V73H502.762V64.2642H502.123C501.413 65.7794 500.407 67.2827 499.105 68.7742C497.826 70.242 496.157 71.4612 494.098 72.4318C492.062 73.4025 489.576 73.8878 486.64 73.8878ZM491.434 61.8494C493.873 61.8494 495.932 61.1866 497.613 59.8608C499.318 58.5114 500.62 56.6293 501.52 54.2145C502.443 51.7997 502.904 48.9707 502.904 45.7273C502.904 42.4839 502.455 39.6667 501.555 37.2756C500.655 34.8845 499.353 33.0379 497.649 31.7358C495.944 30.4337 493.873 29.7827 491.434 29.7827C488.948 29.7827 486.853 30.4574 485.149 31.8068C483.444 33.1563 482.154 35.0265 481.278 37.4176C480.402 39.8087 479.964 42.5786 479.964 45.7273C479.964 48.8996 480.402 51.705 481.278 54.1435C482.178 56.5582 483.468 58.4522 485.149 59.8253C486.853 61.1747 488.948 61.8494 491.434 61.8494Z" fill="white"/>
<path d="M554.973 74.0654C549.362 74.0654 544.533 72.929 540.484 70.6563C536.46 68.3599 533.358 65.1165 531.18 60.9261C529.002 56.7121 527.913 51.7287 527.913 45.9759C527.913 40.3651 529.002 35.4408 531.18 31.2031C533.358 26.9654 536.424 23.6629 540.378 21.2955C544.355 18.928 549.019 17.7443 554.369 17.7443C557.968 17.7443 561.318 18.3243 564.419 19.4844C567.544 20.6207 570.267 22.3371 572.587 24.6335C574.93 26.9299 576.753 29.8182 578.055 33.2983C579.357 36.7547 580.009 40.803 580.009 45.4432V49.598H533.95V40.223H565.768C565.768 38.045 565.295 36.1155 564.348 34.4347C563.401 32.7538 562.087 31.4399 560.406 30.4929C558.749 29.5223 556.82 29.0369 554.618 29.0369C552.321 29.0369 550.285 29.5696 548.51 30.635C546.758 31.6766 545.385 33.0852 544.391 34.8608C543.396 36.6127 542.887 38.5658 542.864 40.7202V49.6335C542.864 52.3324 543.361 54.6643 544.355 56.6293C545.373 58.5942 546.805 60.1094 548.652 61.1747C550.499 62.2401 552.688 62.7727 555.222 62.7727C556.902 62.7727 558.441 62.536 559.838 62.0625C561.235 61.589 562.43 60.8788 563.425 59.9318C564.419 58.9849 565.177 57.8248 565.697 56.4517L579.689 57.375C578.979 60.7368 577.523 63.6724 575.321 66.1818C573.143 68.6676 570.326 70.6089 566.869 72.0057C563.437 73.3788 559.471 74.0654 554.973 74.0654Z" fill="white"/>
<path d="M639.268 18.4546L620.198 73H603.153L584.083 18.4546H600.064L611.392 57.4815H611.96L623.252 18.4546H639.268Z" fill="white"/>
<path d="M670.11 74.0654C664.499 74.0654 659.669 72.929 655.621 70.6563C651.596 68.3599 648.495 65.1165 646.317 60.9261C644.139 56.7121 643.05 51.7287 643.05 45.9759C643.05 40.3651 644.139 35.4408 646.317 31.2031C648.495 26.9654 651.561 23.6629 655.515 21.2955C659.492 18.928 664.156 17.7443 669.506 17.7443C673.104 17.7443 676.454 18.3243 679.556 19.4844C682.681 20.6207 685.403 22.3371 687.723 24.6335C690.067 26.9299 691.89 29.8182 693.192 33.2983C694.494 36.7547 695.145 40.803 695.145 45.4432V49.598H649.087V40.223H680.905C680.905 38.045 680.432 36.1155 679.485 34.4347C678.538 32.7538 677.224 31.4399 675.543 30.4929C673.886 29.5223 671.956 29.0369 669.755 29.0369C667.458 29.0369 665.422 29.5696 663.647 30.635C661.895 31.6766 660.522 33.0852 659.527 34.8608C658.533 36.6127 658.024 38.5658 658 40.7202V49.6335C658 52.3324 658.497 54.6643 659.492 56.6293C660.51 58.5942 661.942 60.1094 663.789 61.1747C665.635 62.2401 667.825 62.7727 670.358 62.7727C672.039 62.7727 673.578 62.536 674.975 62.0625C676.372 61.589 677.567 60.8788 678.561 59.9318C679.556 58.9849 680.313 57.8248 680.834 56.4517L694.826 57.375C694.115 60.7368 692.659 63.6724 690.458 66.1818C688.28 68.6676 685.462 70.6089 682.006 72.0057C678.573 73.3788 674.608 74.0654 670.11 74.0654Z" fill="white"/>
<path d="M720.145 0.272736V73H705.017V0.272736H720.145Z" fill="white"/>
<path d="M756.908 74.0654C751.392 74.0654 746.622 72.8935 742.597 70.5497C738.596 68.1823 735.507 64.8916 733.329 60.6776C731.151 56.4399 730.062 51.5275 730.062 45.9403C730.062 40.3059 731.151 35.3816 733.329 31.1676C735.507 26.9299 738.596 23.6392 742.597 21.2955C746.622 18.928 751.392 17.7443 756.908 17.7443C762.424 17.7443 767.183 18.928 771.184 21.2955C775.209 23.6392 778.31 26.9299 780.488 31.1676C782.666 35.3816 783.755 40.3059 783.755 45.9403C783.755 51.5275 782.666 56.4399 780.488 60.6776C778.31 64.8916 775.209 68.1823 771.184 70.5497C767.183 72.8935 762.424 74.0654 756.908 74.0654ZM756.979 62.3466C759.489 62.3466 761.584 61.6364 763.265 60.2159C764.946 58.7718 766.212 56.8068 767.065 54.321C767.941 51.8352 768.379 49.0062 768.379 45.8338C768.379 42.6615 767.941 39.8324 767.065 37.3466C766.212 34.8608 764.946 32.8958 763.265 31.4517C761.584 30.0076 759.489 29.2855 756.979 29.2855C754.446 29.2855 752.316 30.0076 750.587 31.4517C748.883 32.8958 747.593 34.8608 746.717 37.3466C745.864 39.8324 745.438 42.6615 745.438 45.8338C745.438 49.0062 745.864 51.8352 746.717 54.321C747.593 56.8068 748.883 58.7718 750.587 60.2159C752.316 61.6364 754.446 62.3466 756.979 62.3466Z" fill="white"/>
<path d="M793.592 93.4546V18.4546H808.506V27.6165H809.181C809.844 26.1487 810.803 24.6572 812.058 23.1421C813.336 21.6032 814.993 20.3248 817.029 19.3068C819.089 18.2652 821.646 17.7443 824.7 17.7443C828.677 17.7443 832.346 18.786 835.708 20.8693C839.07 22.929 841.757 26.0422 843.769 30.2088C845.781 34.3518 846.788 39.5483 846.788 45.7983C846.788 51.8826 845.805 57.0199 843.84 61.2102C841.899 65.3769 839.247 68.5374 835.886 70.6918C832.548 72.8225 828.807 73.8878 824.664 73.8878C821.728 73.8878 819.231 73.4025 817.171 72.4318C815.135 71.4612 813.466 70.242 812.164 68.7742C810.862 67.2827 809.868 65.7794 809.181 64.2642H808.719V93.4546H793.592ZM808.4 45.7273C808.4 48.9707 808.85 51.7997 809.749 54.2145C810.649 56.6293 811.951 58.5114 813.655 59.8608C815.36 61.1866 817.432 61.8494 819.87 61.8494C822.332 61.8494 824.415 61.1747 826.12 59.8253C827.825 58.4522 829.115 56.5582 829.991 54.1435C830.89 51.705 831.34 48.8996 831.34 45.7273C831.34 42.5786 830.902 39.8087 830.026 37.4176C829.15 35.0265 827.86 33.1563 826.155 31.8068C824.451 30.4574 822.356 29.7827 819.87 29.7827C817.408 29.7827 815.325 30.4337 813.62 31.7358C811.939 33.0379 810.649 34.8845 809.749 37.2756C808.85 39.6667 808.4 42.4839 808.4 45.7273Z" fill="white"/>
<path d="M881.731 74.0654C876.12 74.0654 871.29 72.929 867.242 70.6563C863.218 68.3599 860.116 65.1165 857.938 60.9261C855.76 56.7121 854.671 51.7287 854.671 45.9759C854.671 40.3651 855.76 35.4408 857.938 31.2031C860.116 26.9654 863.182 23.6629 867.136 21.2955C871.113 18.928 875.777 17.7443 881.127 17.7443C884.726 17.7443 888.075 18.3243 891.177 19.4844C894.302 20.6207 897.024 22.3371 899.344 24.6335C901.688 26.9299 903.511 29.8182 904.813 33.2983C906.115 36.7547 906.766 40.803 906.766 45.4432V49.598H860.708V40.223H892.526C892.526 38.045 892.053 36.1155 891.106 34.4347C890.159 32.7538 888.845 31.4399 887.164 30.4929C885.507 29.5223 883.577 29.0369 881.376 29.0369C879.079 29.0369 877.043 29.5696 875.268 30.635C873.516 31.6766 872.143 33.0852 871.148 34.8608C870.154 36.6127 869.645 38.5658 869.621 40.7202V49.6335C869.621 52.3324 870.119 54.6643 871.113 56.6293C872.131 58.5942 873.563 60.1094 875.41 61.1747C877.256 62.2401 879.446 62.7727 881.979 62.7727C883.66 62.7727 885.199 62.536 886.596 62.0625C887.993 61.589 889.188 60.8788 890.183 59.9318C891.177 58.9849 891.934 57.8248 892.455 56.4517L906.447 57.375C905.736 60.7368 904.281 63.6724 902.079 66.1818C899.901 68.6676 897.084 70.6089 893.627 72.0057C890.194 73.3788 886.229 74.0654 881.731 74.0654Z" fill="white"/>
<path d="M916.638 73V18.4546H931.305V27.9716H931.873C932.867 24.5862 934.536 22.0294 936.88 20.3011C939.224 18.5493 941.923 17.6733 944.977 17.6733C945.734 17.6733 946.551 17.7207 947.427 17.8153C948.303 17.91 949.072 18.0403 949.735 18.206V31.6293C949.025 31.4162 948.042 31.2268 946.788 31.0611C945.533 30.8954 944.385 30.8125 943.343 30.8125C941.118 30.8125 939.129 31.2978 937.377 32.2685C935.649 33.2154 934.276 34.5412 933.258 36.2458C932.263 37.9503 931.766 39.9153 931.766 42.1406V73H916.638Z" fill="white"/>
</svg>
